<svg xmlns="http://www.w3.org/2000/svg" viewBox="0 0 24 24" fill="currentColor"><path d="M19.35 10.04C18.67 6.59 15.64 4 12 4c-1.48 0-2.85.43-4.01 1.17l1.46 1.46C10.21 6.23 11.08 6 12 6c2.76 0 5 2.24 5 5 0 .92-.25 1.79-.68 2.54l1.46 1.46c.74-1.16 1.17-2.52 1.17-4.01.01-.16 0-.33-.01-.49zM4.41 5.86L3 7.27l3.03 3.03C6.01 10.64 6 11.31 6 12c0 2.76 2.24 5 5 5 .69 0 1.36-.14 1.97-.4l3.73 3.73L18.14 19l-12.7-12.7L4.41 5.86zM12 15c-1.66 0-3-1.34-3-3 0-.34.07-.67.18-.97l3.79 3.79c-.3.11-.63.18-.97.18z"/></svg>
